RobotoSerifMicro-HairlineWideItalic03ip.ufo
<glyph name="two" format="2">
  <advance width="680"/>
  <unicode hex="0032"/>
  <outline>
    <contour>
      <point x="-18" y="0" type="line"/>
      <point x="-10" y="40" type="line"/>
      <point x="287" y="269"/>
      <point x="434" y="362"/>
      <point x="434" y="512" type="curve" smooth="yes"/>
      <point x="434" y="521"/>
      <point x="433" y="529"/>
      <point x="432" y="538" type="curve" smooth="yes"/>
      <point x="424" y="615"/>
      <point x="364" y="649"/>
      <point x="274" y="649" type="curve" smooth="yes"/>
      <point x="203" y="649"/>
      <point x="138" y="625"/>
      <point x="103" y="612" type="curve"/>
      <point x="111" y="617"/>
      <point x="135" y="636"/>
      <point x="145" y="636" type="curve" smooth="yes"/>
      <point x="147" y="636"/>
      <point x="149" y="634"/>
      <point x="149" y="631" type="curve" smooth="yes"/>
      <point x="149" y="631"/>
      <point x="149" y="630"/>
      <point x="149" y="630" type="curve" smooth="yes"/>
      <point x="123" y="473" type="line"/>
      <point x="59" y="473" type="line"/>
      <point x="87" y="653" type="line"/>
      <point x="112" y="663"/>
      <point x="188" y="693"/>
      <point x="273" y="693" type="curve" smooth="yes"/>
      <point x="396" y="693"/>
      <point x="481" y="645"/>
      <point x="492" y="538" type="curve" smooth="yes"/>
      <point x="493" y="531"/>
      <point x="494" y="523"/>
      <point x="494" y="516" type="curve" smooth="yes"/>
      <point x="494" y="346"/>
      <point x="285" y="222"/>
      <point x="24" y="26" type="curve"/>
      <point x="18" y="33" type="line"/>
      <point x="286" y="33" type="line" smooth="yes"/>
      <point x="373" y="33"/>
      <point x="408" y="40"/>
      <point x="417" y="74" type="curve" smooth="yes"/>
      <point x="444" y="181" type="line"/>
      <point x="491" y="181" type="line"/>
      <point x="463" y="0" type="line"/>
    </contour>
  </outline>
</glyph>
<glyph name="three" format="2">
  <advance width="680"/>
  <unicode hex="0033"/>
  <outline>
    <contour>
      <point x="255" y="-46" type="curve" smooth="yes"/>
      <point x="95" y="-46"/>
      <point x="9" y="32"/>
      <point x="-22" y="123" type="curve"/>
      <point x="26" y="136" type="line"/>
      <point x="55" y="63"/>
      <point x="110" y="-5"/>
      <point x="253" y="-5" type="curve" smooth="yes"/>
      <point x="363" y="-5"/>
      <point x="429" y="53"/>
      <point x="429" y="146" type="curve" smooth="yes"/>
      <point x="429" y="153"/>
      <point x="428" y="160"/>
      <point x="427" y="168" type="curve" smooth="yes"/>
      <point x="417" y="266"/>
      <point x="352" y="317"/>
      <point x="226" y="317" type="curve" smooth="yes"/>
      <point x="146" y="317" type="line"/>
      <point x="153" y="355" type="line"/>
      <point x="239" y="355" type="line"/>
      <point x="366" y="355"/>
      <point x="445" y="399"/>
      <point x="445" y="513" type="curve" smooth="yes"/>
      <point x="445" y="522"/>
      <point x="444" y="532"/>
      <point x="443" y="542" type="curve" smooth="yes"/>
      <point x="435" y="614"/>
      <point x="373" y="652"/>
      <point x="278" y="652" type="curve" smooth="yes"/>
      <point x="197" y="652"/>
      <point x="143" y="624"/>
      <point x="126" y="616" type="curve"/>
      <point x="126" y="616"/>
      <point x="125" y="616"/>
      <point x="125" y="616" type="curve" smooth="yes"/>
      <point x="124" y="616"/>
      <point x="123" y="616"/>
      <point x="123" y="616" type="curve" smooth="yes"/>
      <point x="123" y="619"/>
      <point x="141" y="630"/>
      <point x="165" y="633" type="curve"/>
      <point x="142" y="487" type="line"/>
      <point x="85" y="487" type="line"/>
      <point x="111" y="655" type="line"/>
      <point x="137" y="668"/>
      <point x="202" y="694"/>
      <point x="275" y="694" type="curve" smooth="yes"/>
      <point x="403" y="694"/>
      <point x="488" y="631"/>
      <point x="497" y="540" type="curve" smooth="yes"/>
      <point x="498" y="530"/>
      <point x="499" y="521"/>
      <point x="499" y="512" type="curve" smooth="yes"/>
      <point x="499" y="396"/>
      <point x="412" y="342"/>
      <point x="284" y="337" type="curve"/>
      <point x="293" y="348" type="line"/>
      <point x="288" y="319" type="line"/>
      <point x="286" y="334" type="line"/>
      <point x="418" y="311"/>
      <point x="476" y="254"/>
      <point x="485" y="169" type="curve" smooth="yes"/>
      <point x="486" y="162"/>
      <point x="486" y="155"/>
      <point x="486" y="148" type="curve" smooth="yes"/>
      <point x="486" y="43"/>
      <point x="405" y="-46"/>
    </contour>
  </outline>
</glyph>
<glyph name="four" format="2">
  <advance width="680"/>
  <unicode hex="0034"/>
  <outline>
    <contour>
      <point x="-4" y="165" type="line"/>
      <point x="512" y="165" type="line"/>
      <point x="519" y="206" type="line"/>
      <point x="33" y="206" type="line"/>
      <point x="30" y="187" type="line"/>
      <point x="428" y="671" type="line"/>
      <point x="422" y="675" type="line"/>
      <point x="383" y="675" type="line"/>
      <point x="5" y="218" type="line"/>
    </contour>
    <contour>
      <point x="350" y="-40" type="line"/>
      <point x="465" y="675" type="line"/>
      <point x="400" y="675" type="line"/>
      <point x="414" y="663" type="line"/>
      <point x="301" y="-40" type="line"/>
    </contour>
  </outline>
</glyph>
<glyph name="nine" format="2">
  <advance width="680"/>
  <unicode hex="0039"/>
  <outline>
    <contour>
      <point x="264" y="693" type="curve" smooth="yes"/>
      <point x="400" y="693"/>
      <point x="483" y="628"/>
      <point x="499" y="471" type="curve" smooth="yes"/>
      <point x="502" y="443"/>
      <point x="504" y="415"/>
      <point x="504" y="388" type="curve" smooth="yes"/>
      <point x="504" y="150"/>
      <point x="387" y="-57"/>
      <point x="49" y="-57" type="curve" smooth="yes"/>
      <point x="48" y="-57"/>
      <point x="48" y="-57"/>
      <point x="47" y="-57" type="curve"/>
      <point x="44" y="-18" type="line"/>
      <point x="48" y="-18"/>
      <point x="52" y="-18"/>
      <point x="56" y="-18" type="curve" smooth="yes"/>
      <point x="308" y="-18"/>
      <point x="426" y="105"/>
      <point x="450" y="297" type="curve" smooth="yes"/>
      <point x="453" y="323"/>
      <point x="455" y="350"/>
      <point x="455" y="379" type="curve" smooth="yes"/>
      <point x="455" y="408"/>
      <point x="453" y="437"/>
      <point x="450" y="468" type="curve" smooth="yes"/>
      <point x="435" y="611"/>
      <point x="363" y="653"/>
      <point x="265" y="653" type="curve" smooth="yes"/>
      <point x="163" y="653"/>
      <point x="114" y="585"/>
      <point x="95" y="508" type="curve" smooth="yes"/>
      <point x="89" y="482"/>
      <point x="86" y="455"/>
      <point x="86" y="429" type="curve" smooth="yes"/>
      <point x="86" y="415"/>
      <point x="87" y="402"/>
      <point x="88" y="390" type="curve" smooth="yes"/>
      <point x="96" y="314"/>
      <point x="143" y="263"/>
      <point x="242" y="263" type="curve" smooth="yes"/>
      <point x="339" y="263"/>
      <point x="385" y="324"/>
      <point x="463" y="453" type="curve"/>
      <point x="463" y="411" type="line"/>
      <point x="403" y="287"/>
      <point x="328" y="223"/>
      <point x="236" y="223" type="curve" smooth="yes"/>
      <point x="121" y="223"/>
      <point x="45" y="286"/>
      <point x="34" y="393" type="curve" smooth="yes"/>
      <point x="32" y="406"/>
      <point x="32" y="419"/>
      <point x="32" y="432" type="curve" smooth="yes"/>
      <point x="32" y="564"/>
      <point x="101" y="693"/>
    </contour>
  </outline>
</glyph>
<glyph name="Q" format="2">
  <advance width="813"/>
  <unicode hex="0051"/>
  <outline>
    <contour>
      <point x="737" y="473" type="curve" smooth="yes"/>
      <point x="719" y="651"/>
      <point x="590" y="735"/>
      <point x="416" y="735" type="curve" smooth="yes"/>
      <point x="139" y="735"/>
      <point x="33" y="505"/>
      <point x="33" y="299" type="curve" smooth="yes"/>
      <point x="33" y="279"/>
      <point x="34" y="258"/>
      <point x="36" y="238" type="curve" smooth="yes"/>
      <point x="55" y="59"/>
      <point x="184" y="-25"/>
      <point x="357" y="-25" type="curve" smooth="yes"/>
      <point x="634" y="-25"/>
      <point x="741" y="205"/>
      <point x="741" y="411" type="curve" smooth="yes"/>
      <point x="741" y="432"/>
      <point x="739" y="453"/>
    </contour>
    <contour>
      <point x="357" y="16" type="curve" smooth="yes"/>
      <point x="205" y="16"/>
      <point x="107" y="84"/>
      <point x="90" y="244" type="curve" smooth="yes"/>
      <point x="88" y="267"/>
      <point x="87" y="291"/>
      <point x="87" y="316" type="curve" smooth="yes"/>
      <point x="87" y="381"/>
      <point x="96" y="447"/>
      <point x="117" y="506" type="curve" smooth="yes"/>
      <point x="162" y="600"/>
      <point x="254" y="694"/>
      <point x="416" y="694" type="curve" smooth="yes"/>
      <point x="568" y="694"/>
      <point x="666" y="626"/>
      <point x="683" y="466" type="curve" smooth="yes"/>
      <point x="685" y="443"/>
      <point x="687" y="419"/>
      <point x="687" y="394" type="curve" smooth="yes"/>
      <point x="687" y="329"/>
      <point x="677" y="263"/>
      <point x="657" y="204" type="curve" smooth="yes"/>
      <point x="612" y="110"/>
      <point x="519" y="16"/>
    </contour>
    <contour>
      <point x="517" y="-239" type="curve" smooth="yes"/>
      <point x="577" y="-239"/>
      <point x="629" y="-225"/>
      <point x="661" y="-212" type="curve"/>
      <point x="670" y="-169" type="line"/>
      <point x="629" y="-183"/>
      <point x="578" y="-198"/>
      <point x="517" y="-198" type="curve" smooth="yes"/>
      <point x="417" y="-198"/>
      <point x="359" y="-166"/>
      <point x="353" y="-105" type="curve" smooth="yes"/>
      <point x="352" y="-95"/>
      <point x="351" y="-85"/>
      <point x="351" y="-75" type="curve" smooth="yes"/>
      <point x="351" y="-52"/>
      <point x="354" y="-28"/>
      <point x="359" y="-1" type="curve"/>
      <point x="316" y="-7" type="line"/>
      <point x="309" y="-40"/>
      <point x="306" y="-67"/>
      <point x="306" y="-88" type="curve" smooth="yes"/>
      <point x="306" y="-93"/>
      <point x="306" y="-99"/>
      <point x="307" y="-103" type="curve" smooth="yes"/>
      <point x="317" y="-199"/>
      <point x="402" y="-239"/>
    </contour>
  </outline>
</glyph>
<glyph name="backslash" format="2">
  <advance width="570"/>
  <unicode hex="005C"/>
  <outline>
    <contour>
      <point x="20" y="780" type="line"/>
      <point x="-25" y="780" type="line"/>
      <point x="485" y="-158" type="line"/>
      <point x="531" y="-158" type="line"/>
    </contour>
  </outline>
</glyph>
<glyph name="logicalnot" format="2">
  <advance width="594"/>
  <unicode hex="00AC"/>
  <outline>
    <contour>
      <point x="430" y="389" type="line"/>
      <point x="393" y="158" type="line"/>
      <point x="444" y="158" type="line"/>
      <point x="486" y="413" type="line"/>
      <point x="53" y="413" type="line"/>
      <point x="45" y="370" type="line"/>
      <point x="456" y="370" type="line"/>
    </contour>
  </outline>
</glyph>
<glyph name="macron" format="2">
  <advance width="530"/>
  <unicode hex="00AF"/>
  <anchor x="210" y="526" name="_top"/>
  <outline>
    <contour>
      <point x="22" y="765" type="line"/>
      <point x="13" y="715" type="line"/>
      <point x="354" y="715" type="line"/>
      <point x="363" y="765" type="line"/>
    </contour>
  </outline>
</glyph>
<glyph name="cedilla" format="2">
  <advance width="530"/>
  <unicode hex="00B8"/>
  <anchor x="259" y="34" name="_bottom"/>
  <outline>
    <contour>
      <point x="304" y="-288" type="curve" smooth="yes"/>
      <point x="390" y="-288"/>
      <point x="432" y="-245"/>
      <point x="432" y="-193" type="curve" smooth="yes"/>
      <point x="432" y="-189"/>
      <point x="432" y="-186"/>
      <point x="431" y="-182" type="curve" smooth="yes"/>
      <point x="425" y="-126"/>
      <point x="377" y="-87"/>
      <point x="268" y="-87" type="curve"/>
      <point x="275" y="-94" type="line"/>
      <point x="353" y="5" type="line"/>
      <point x="285" y="5" type="line"/>
      <point x="230" y="-121" type="line"/>
      <point x="269" y="-121" type="line" smooth="yes"/>
      <point x="345" y="-121"/>
      <point x="374" y="-140"/>
      <point x="378" y="-180" type="curve" smooth="yes"/>
      <point x="378" y="-184"/>
      <point x="379" y="-187"/>
      <point x="379" y="-191" type="curve" smooth="yes"/>
      <point x="379" y="-229"/>
      <point x="354" y="-251"/>
      <point x="300" y="-251" type="curve" smooth="yes"/>
      <point x="224" y="-251"/>
      <point x="198" y="-209"/>
      <point x="184" y="-190" type="curve"/>
      <point x="145" y="-211" type="line"/>
      <point x="169" y="-246"/>
      <point x="212" y="-288"/>
    </contour>
  </outline>
</glyph>
<glyph name="idieresis" format="2">
  <advance width="350"/>
  <unicode hex="00EF"/>
  <outline>
    <contour>
      <point x="34" y="699" type="curve" smooth="yes"/>
      <point x="63" y="699"/>
      <point x="87" y="710"/>
      <point x="87" y="743" type="curve" smooth="yes"/>
      <point x="87" y="745"/>
      <point x="86" y="748"/>
      <point x="86" y="751" type="curve" smooth="yes"/>
      <point x="82" y="790"/>
      <point x="54" y="804"/>
      <point x="22" y="804" type="curve" smooth="yes"/>
      <point x="-9" y="804"/>
      <point x="-30" y="792"/>
      <point x="-30" y="760" type="curve" smooth="yes"/>
      <point x="-30" y="757"/>
      <point x="-30" y="754"/>
      <point x="-30" y="751" type="curve" smooth="yes"/>
      <point x="-26" y="712"/>
      <point x="0" y="699"/>
    </contour>
    <contour>
      <point x="268" y="699" type="curve" smooth="yes"/>
      <point x="297" y="699"/>
      <point x="321" y="710"/>
      <point x="321" y="743" type="curve" smooth="yes"/>
      <point x="321" y="745"/>
      <point x="320" y="748"/>
      <point x="320" y="751" type="curve" smooth="yes"/>
      <point x="316" y="790"/>
      <point x="288" y="804"/>
      <point x="256" y="804" type="curve" smooth="yes"/>
      <point x="225" y="804"/>
      <point x="204" y="792"/>
      <point x="204" y="760" type="curve" smooth="yes"/>
      <point x="204" y="757"/>
      <point x="204" y="754"/>
      <point x="204" y="751" type="curve" smooth="yes"/>
      <point x="208" y="712"/>
      <point x="234" y="699"/>
    </contour>
    <contour>
      <point x="132" y="127" type="curve" smooth="yes"/>
      <point x="147" y="565" type="line"/>
      <point x="1" y="565" type="line"/>
      <point x="-2" y="529" type="line"/>
      <point x="10" y="527" type="line" smooth="yes"/>
      <point x="64" y="516"/>
      <point x="89" y="510"/>
      <point x="91" y="492" type="curve" smooth="yes"/>
      <point x="91" y="492"/>
      <point x="91" y="492"/>
      <point x="91" y="491" type="curve" smooth="yes"/>
      <point x="91" y="491"/>
      <point x="91" y="491"/>
      <point x="90" y="490" type="curve" smooth="yes"/>
      <point x="83" y="161" type="line" smooth="yes"/>
      <point x="80" y="137"/>
      <point x="78" y="116"/>
      <point x="78" y="96" type="curve" smooth="yes"/>
      <point x="78" y="87"/>
      <point x="79" y="78"/>
      <point x="80" y="70" type="curve" smooth="yes"/>
      <point x="80" y="64"/>
      <point x="81" y="59"/>
      <point x="81" y="54" type="curve" smooth="yes"/>
      <point x="89" y="19"/>
      <point x="122" y="0"/>
      <point x="164" y="0" type="curve" smooth="yes"/>
      <point x="196" y="0"/>
      <point x="228" y="0"/>
      <point x="260" y="0" type="curve"/>
      <point x="260" y="40" type="line"/>
      <point x="230" y="40"/>
      <point x="201" y="40"/>
      <point x="171" y="40" type="curve" smooth="yes"/>
      <point x="149" y="40"/>
      <point x="133" y="48"/>
      <point x="129" y="67" type="curve" smooth="yes"/>
      <point x="129" y="70"/>
      <point x="127" y="73"/>
      <point x="127" y="76" type="curve" smooth="yes"/>
      <point x="127" y="78"/>
      <point x="127" y="80"/>
      <point x="127" y="82" type="curve" smooth="yes"/>
      <point x="127" y="91"/>
      <point x="128" y="104"/>
    </contour>
  </outline>
</glyph>
<glyph name="oslash" format="2">
  <advance width="683"/>
  <unicode hex="00F8"/>
  <anchor x="282" y="565" name="top"/>
  <outline>
    <contour>
      <point x="307" y="-13" type="curve" smooth="yes"/>
      <point x="520" y="-13"/>
      <point x="585" y="173"/>
      <point x="585" y="311" type="curve" smooth="yes"/>
      <point x="585" y="325"/>
      <point x="584" y="340"/>
      <point x="583" y="353" type="curve" smooth="yes"/>
      <point x="568" y="495"/>
      <point x="476" y="575"/>
      <point x="326" y="575" type="curve" smooth="yes"/>
      <point x="113" y="575"/>
      <point x="48" y="389"/>
      <point x="48" y="251" type="curve" smooth="yes"/>
      <point x="48" y="237"/>
      <point x="49" y="222"/>
      <point x="50" y="209" type="curve" smooth="yes"/>
      <point x="65" y="67"/>
      <point x="157" y="-13"/>
    </contour>
    <contour>
      <point x="-30" y="0" type="line"/>
      <point x="32" y="0" type="line"/>
      <point x="653" y="562" type="line"/>
      <point x="591" y="562" type="line"/>
    </contour>
    <contour>
      <point x="306" y="28" type="curve" smooth="yes"/>
      <point x="171" y="28"/>
      <point x="119" y="78"/>
      <point x="105" y="212" type="curve" smooth="yes"/>
      <point x="103" y="228"/>
      <point x="102" y="246"/>
      <point x="102" y="264" type="curve" smooth="yes"/>
      <point x="102" y="318"/>
      <point x="111" y="378"/>
      <point x="134" y="428" type="curve" smooth="yes"/>
      <point x="167" y="489"/>
      <point x="225" y="534"/>
      <point x="326" y="534" type="curve" smooth="yes"/>
      <point x="462" y="534"/>
      <point x="513" y="484"/>
      <point x="527" y="350" type="curve" smooth="yes"/>
      <point x="529" y="334"/>
      <point x="530" y="316"/>
      <point x="530" y="298" type="curve" smooth="yes"/>
      <point x="530" y="244"/>
      <point x="521" y="184"/>
      <point x="498" y="134" type="curve" smooth="yes"/>
      <point x="466" y="73"/>
      <point x="407" y="28"/>
    </contour>
  </outline>
</glyph>
<glyph name="eogonek" format="2">
  <advance width="570"/>
  <unicode hex="0119"/>
  <outline>
    <contour>
      <point x="282" y="-252" type="curve" smooth="yes"/>
      <point x="338" y="-252"/>
      <point x="374" y="-227"/>
      <point x="412" y="-189" type="curve"/>
      <point x="387" y="-163" type="line"/>
      <point x="364" y="-184"/>
      <point x="333" y="-217"/>
      <point x="283" y="-217" type="curve" smooth="yes"/>
      <point x="239" y="-217"/>
      <point x="220" y="-197"/>
      <point x="216" y="-164" type="curve" smooth="yes"/>
      <point x="216" y="-162"/>
      <point x="216" y="-160"/>
      <point x="216" y="-157" type="curve" smooth="yes"/>
      <point x="216" y="-69"/>
      <point x="396" y="-1"/>
      <point x="455" y="58" type="curve" smooth="yes"/>
      <point x="477" y="78"/>
      <point x="486" y="91"/>
      <point x="495" y="103" type="curve"/>
      <point x="459" y="130" type="line"/>
      <point x="422" y="76"/>
      <point x="379" y="29"/>
      <point x="269" y="29" type="curve" smooth="yes"/>
      <point x="173" y="29"/>
      <point x="94" y="78"/>
      <point x="80" y="207" type="curve" smooth="yes"/>
      <point x="79" y="223"/>
      <point x="78" y="239"/>
      <point x="78" y="254" type="curve" smooth="yes"/>
      <point x="78" y="406"/>
      <point x="157" y="534"/>
      <point x="309" y="534" type="curve" smooth="yes"/>
      <point x="383" y="534"/>
      <point x="426" y="508"/>
      <point x="433" y="439" type="curve" smooth="yes"/>
      <point x="433" y="434"/>
      <point x="434" y="428"/>
      <point x="434" y="423" type="curve" smooth="yes"/>
      <point x="434" y="327"/>
      <point x="332" y="267"/>
      <point x="62" y="255" type="curve"/>
      <point x="64" y="225" type="line"/>
      <point x="345" y="234"/>
      <point x="487" y="308"/>
      <point x="487" y="425" type="curve" smooth="yes"/>
      <point x="487" y="430"/>
      <point x="487" y="436"/>
      <point x="487" y="441" type="curve" smooth="yes"/>
      <point x="478" y="522"/>
      <point x="417" y="575"/>
      <point x="304" y="575" type="curve" smooth="yes"/>
      <point x="132" y="575"/>
      <point x="21" y="435"/>
      <point x="21" y="257" type="curve" smooth="yes"/>
      <point x="21" y="241"/>
      <point x="22" y="226"/>
      <point x="24" y="210" type="curve" smooth="yes"/>
      <point x="39" y="71"/>
      <point x="138" y="-12"/>
      <point x="274" y="-12" type="curve" smooth="yes"/>
      <point x="312" y="-12"/>
      <point x="345" y="-6"/>
      <point x="373" y="5" type="curve"/>
      <point x="384" y="32" type="line"/>
      <point x="197" y="-64"/>
      <point x="159" y="-103"/>
      <point x="159" y="-152" type="curve" smooth="yes"/>
      <point x="159" y="-156"/>
      <point x="159" y="-160"/>
      <point x="159" y="-164" type="curve" smooth="yes"/>
      <point x="165" y="-215"/>
      <point x="210" y="-252"/>
    </contour>
  </outline>
</glyph>
<glyph name="hbar" format="2">
  <advance width="686"/>
  <unicode hex="0127"/>
  <outline>
    <contour>
      <point x="451" y="160" type="line" smooth="yes"/>
      <point x="441" y="123"/>
      <point x="433" y="93"/>
      <point x="433" y="65" type="curve" smooth="yes"/>
      <point x="433" y="60"/>
      <point x="433" y="56"/>
      <point x="434" y="51" type="curve" smooth="yes"/>
      <point x="437" y="16"/>
      <point x="469" y="0"/>
      <point x="511" y="0" type="curve" smooth="yes"/>
      <point x="544" y="0"/>
      <point x="576" y="0"/>
      <point x="610" y="0" type="curve"/>
      <point x="614" y="40" type="line"/>
      <point x="585" y="40"/>
      <point x="555" y="40"/>
      <point x="526" y="40" type="curve"/>
      <point x="504" y="40"/>
      <point x="489" y="48"/>
      <point x="487" y="67" type="curve" smooth="yes"/>
      <point x="487" y="70"/>
      <point x="486" y="73"/>
      <point x="486" y="76" type="curve" smooth="yes"/>
      <point x="486" y="86"/>
      <point x="489" y="98"/>
      <point x="497" y="126" type="curve" smooth="yes"/>
      <point x="540" y="379" type="line" smooth="yes"/>
      <point x="547" y="418"/>
      <point x="551" y="448"/>
      <point x="551" y="474" type="curve" smooth="yes"/>
      <point x="551" y="481"/>
      <point x="551" y="489"/>
      <point x="550" y="496" type="curve" smooth="yes"/>
      <point x="545" y="541"/>
      <point x="516" y="575"/>
      <point x="433" y="575" type="curve" smooth="yes"/>
      <point x="327" y="575"/>
      <point x="241" y="483"/>
      <point x="146" y="367" type="curve"/>
      <point x="161" y="345" type="line"/>
      <point x="261" y="465"/>
      <point x="337" y="532"/>
      <point x="422" y="532" type="curve" smooth="yes"/>
      <point x="474" y="532"/>
      <point x="495" y="516"/>
      <point x="498" y="482" type="curve" smooth="yes"/>
      <point x="499" y="477"/>
      <point x="499" y="472"/>
      <point x="499" y="466" type="curve" smooth="yes"/>
      <point x="499" y="445"/>
      <point x="495" y="420"/>
      <point x="490" y="382" type="curve" smooth="yes"/>
    </contour>
    <contour>
      <point x="64" y="0" type="line"/>
      <point x="114" y="0" type="line"/>
      <point x="240" y="780" type="line"/>
      <point x="189" y="780" type="line"/>
    </contour>
    <contour>
      <point x="447" y="670" type="line"/>
      <point x="453" y="705" type="line"/>
      <point x="101" y="705" type="line"/>
      <point x="95" y="670" type="line"/>
    </contour>
  </outline>
</glyph>
<glyph name="oe" format="2">
  <advance width="1046"/>
  <unicode hex="0153"/>
  <outline>
    <contour>
      <point x="557" y="207" type="curve" smooth="yes"/>
      <point x="556" y="223"/>
      <point x="555" y="239"/>
      <point x="555" y="254" type="curve" smooth="yes"/>
      <point x="555" y="406"/>
      <point x="633" y="534"/>
      <point x="785" y="534" type="curve" smooth="yes"/>
      <point x="859" y="534"/>
      <point x="902" y="508"/>
      <point x="909" y="439" type="curve" smooth="yes"/>
      <point x="909" y="434"/>
      <point x="910" y="428"/>
      <point x="910" y="423" type="curve" smooth="yes"/>
      <point x="910" y="327"/>
      <point x="808" y="267"/>
      <point x="538" y="255" type="curve"/>
      <point x="539" y="225" type="line"/>
      <point x="821" y="234"/>
      <point x="963" y="308"/>
      <point x="963" y="425" type="curve" smooth="yes"/>
      <point x="963" y="430"/>
      <point x="963" y="436"/>
      <point x="963" y="441" type="curve" smooth="yes"/>
      <point x="954" y="522"/>
      <point x="894" y="575"/>
      <point x="780" y="575" type="curve" smooth="yes"/>
      <point x="614" y="575"/>
      <point x="513" y="440"/>
      <point x="513" y="262" type="curve" smooth="yes"/>
      <point x="513" y="245"/>
      <point x="514" y="228"/>
      <point x="516" y="210" type="curve" smooth="yes"/>
      <point x="531" y="63"/>
      <point x="613" y="-12"/>
      <point x="750" y="-12" type="curve" smooth="yes"/>
      <point x="861" y="-12"/>
      <point x="934" y="46"/>
      <point x="971" y="106" type="curve"/>
      <point x="934" y="130" type="line"/>
      <point x="898" y="78"/>
      <point x="855" y="29"/>
      <point x="745" y="29" type="curve" smooth="yes"/>
      <point x="649" y="29"/>
      <point x="571" y="78"/>
    </contour>
    <contour>
      <point x="300" y="575" type="curve" smooth="yes"/>
      <point x="87" y="575"/>
      <point x="22" y="389"/>
      <point x="22" y="251" type="curve" smooth="yes"/>
      <point x="22" y="237"/>
      <point x="23" y="222"/>
      <point x="24" y="209" type="curve" smooth="yes"/>
      <point x="38" y="73"/>
      <point x="131" y="-13"/>
      <point x="281" y="-13" type="curve" smooth="yes"/>
      <point x="489" y="-13"/>
      <point x="543" y="170"/>
      <point x="543" y="311" type="curve" smooth="yes"/>
      <point x="543" y="330"/>
      <point x="542" y="348"/>
      <point x="541" y="365" type="curve" smooth="yes"/>
      <point x="526" y="503"/>
      <point x="450" y="575"/>
    </contour>
    <contour>
      <point x="473" y="134" type="curve" smooth="yes"/>
      <point x="440" y="73"/>
      <point x="382" y="28"/>
      <point x="281" y="28" type="curve" smooth="yes"/>
      <point x="156" y="28"/>
      <point x="93" y="83"/>
      <point x="80" y="212" type="curve" smooth="yes"/>
      <point x="78" y="228"/>
      <point x="77" y="246"/>
      <point x="77" y="264" type="curve" smooth="yes"/>
      <point x="77" y="318"/>
      <point x="86" y="378"/>
      <point x="109" y="428" type="curve" smooth="yes"/>
      <point x="141" y="489"/>
      <point x="200" y="534"/>
      <point x="301" y="534" type="curve" smooth="yes"/>
      <point x="425" y="534"/>
      <point x="489" y="479"/>
      <point x="502" y="350" type="curve" smooth="yes"/>
      <point x="504" y="334"/>
      <point x="505" y="316"/>
      <point x="505" y="298" type="curve" smooth="yes"/>
      <point x="505" y="244"/>
      <point x="496" y="184"/>
    </contour>
  </outline>
</glyph>
<glyph name="Uogonek" format="2">
  <advance width="823"/>
  <unicode hex="0172"/>
  <outline>
    <contour>
      <point x="412" y="-252" type="curve" smooth="yes"/>
      <point x="468" y="-252"/>
      <point x="505" y="-227"/>
      <point x="542" y="-189" type="curve"/>
      <point x="517" y="-163" type="line"/>
      <point x="494" y="-184"/>
      <point x="464" y="-217"/>
      <point x="413" y="-217" type="curve" smooth="yes"/>
      <point x="369" y="-217"/>
      <point x="350" y="-197"/>
      <point x="346" y="-164" type="curve" smooth="yes"/>
      <point x="346" y="-161"/>
      <point x="346" y="-159"/>
      <point x="346" y="-156" type="curve" smooth="yes"/>
      <point x="346" y="-75"/>
      <point x="481" y="-38"/>
      <point x="556" y="41" type="curve" smooth="yes"/>
      <point x="598" y="85"/>
      <point x="619" y="136"/>
      <point x="633" y="214" type="curve" smooth="yes"/>
      <point x="696" y="621" type="line" smooth="yes"/>
      <point x="701" y="655"/>
      <point x="740" y="666"/>
      <point x="792" y="666" type="curve" smooth="yes"/>
      <point x="804" y="666" type="line"/>
      <point x="811" y="710" type="line"/>
      <point x="566" y="710" type="line"/>
      <point x="559" y="666" type="line"/>
      <point x="568" y="666" type="line" smooth="yes"/>
      <point x="608" y="666"/>
      <point x="657" y="659"/>
      <point x="657" y="648" type="curve" smooth="yes"/>
      <point x="657" y="647"/>
      <point x="657" y="647"/>
      <point x="657" y="647" type="curve" smooth="yes"/>
      <point x="592" y="221" type="line" smooth="yes"/>
      <point x="568" y="73"/>
      <point x="508" y="15"/>
      <point x="365" y="15" type="curve" smooth="yes"/>
      <point x="244" y="15"/>
      <point x="168" y="54"/>
      <point x="156" y="171" type="curve" smooth="yes"/>
      <point x="155" y="182"/>
      <point x="154" y="194"/>
      <point x="154" y="207" type="curve" smooth="yes"/>
      <point x="154" y="235"/>
      <point x="157" y="269"/>
      <point x="166" y="321" type="curve" smooth="yes"/>
      <point x="217" y="656" type="line" smooth="yes"/>
      <point x="218" y="663"/>
      <point x="271" y="666"/>
      <point x="311" y="666" type="curve" smooth="yes"/>
      <point x="320" y="666" type="line"/>
      <point x="328" y="710" type="line"/>
      <point x="75" y="710" type="line"/>
      <point x="67" y="666" type="line"/>
      <point x="79" y="666" type="line" smooth="yes"/>
      <point x="128" y="666"/>
      <point x="163" y="660"/>
      <point x="163" y="635" type="curve" smooth="yes"/>
      <point x="163" y="633"/>
      <point x="163" y="632"/>
      <point x="163" y="630" type="curve" smooth="yes"/>
      <point x="117" y="324" type="line" smooth="yes"/>
      <point x="108" y="271"/>
      <point x="106" y="233"/>
      <point x="106" y="205" type="curve" smooth="yes"/>
      <point x="106" y="191"/>
      <point x="106" y="179"/>
      <point x="107" y="168" type="curve" smooth="yes"/>
      <point x="121" y="39"/>
      <point x="208" y="-25"/>
      <point x="369" y="-25" type="curve" smooth="yes"/>
      <point x="420" y="-25"/>
      <point x="463" y="-17"/>
      <point x="500" y="4" type="curve"/>
      <point x="524" y="34" type="line"/>
      <point x="328" y="-67"/>
      <point x="289" y="-103"/>
      <point x="289" y="-153" type="curve" smooth="yes"/>
      <point x="289" y="-157"/>
      <point x="289" y="-161"/>
      <point x="289" y="-165" type="curve" smooth="yes"/>
      <point x="295" y="-215"/>
      <point x="340" y="-252"/>
    </contour>
  </outline>
</glyph>
<glyph name="iinvertedbreve" format="2">
  <advance width="350"/>
  <unicode hex="020B"/>
  <outline>
    <contour>
      <point x="146" y="824" type="curve" smooth="yes"/>
      <point x="54" y="824"/>
      <point x="15" y="776"/>
      <point x="12" y="675" type="curve"/>
      <point x="58" y="675" type="line"/>
      <point x="70" y="757"/>
      <point x="86" y="777"/>
      <point x="150" y="777" type="curve" smooth="yes"/>
      <point x="230" y="777"/>
      <point x="241" y="749"/>
      <point x="245" y="675" type="curve"/>
      <point x="291" y="675" type="line"/>
      <point x="292" y="684"/>
      <point x="292" y="692"/>
      <point x="292" y="699" type="curve" smooth="yes"/>
      <point x="292" y="708"/>
      <point x="292" y="716"/>
      <point x="291" y="723" type="curve" smooth="yes"/>
      <point x="284" y="787"/>
      <point x="250" y="824"/>
    </contour>
    <contour>
      <point x="132" y="127" type="curve" smooth="yes"/>
      <point x="147" y="565" type="line"/>
      <point x="1" y="565" type="line"/>
      <point x="-2" y="529" type="line"/>
      <point x="10" y="527" type="line" smooth="yes"/>
      <point x="64" y="516"/>
      <point x="89" y="510"/>
      <point x="91" y="492" type="curve" smooth="yes"/>
      <point x="91" y="492"/>
      <point x="91" y="492"/>
      <point x="91" y="491" type="curve" smooth="yes"/>
      <point x="91" y="491"/>
      <point x="91" y="491"/>
      <point x="90" y="490" type="curve" smooth="yes"/>
      <point x="83" y="161" type="line" smooth="yes"/>
      <point x="80" y="137"/>
      <point x="78" y="116"/>
      <point x="78" y="96" type="curve" smooth="yes"/>
      <point x="78" y="87"/>
      <point x="79" y="78"/>
      <point x="80" y="70" type="curve" smooth="yes"/>
      <point x="80" y="64"/>
      <point x="81" y="59"/>
      <point x="81" y="54" type="curve" smooth="yes"/>
      <point x="89" y="19"/>
      <point x="122" y="0"/>
      <point x="164" y="0" type="curve" smooth="yes"/>
      <point x="196" y="0"/>
      <point x="228" y="0"/>
      <point x="260" y="0" type="curve"/>
      <point x="260" y="40" type="line"/>
      <point x="230" y="40"/>
      <point x="201" y="40"/>
      <point x="171" y="40" type="curve" smooth="yes"/>
      <point x="149" y="40"/>
      <point x="133" y="48"/>
      <point x="129" y="67" type="curve" smooth="yes"/>
      <point x="129" y="70"/>
      <point x="127" y="73"/>
      <point x="127" y="76" type="curve" smooth="yes"/>
      <point x="127" y="78"/>
      <point x="127" y="80"/>
      <point x="127" y="82" type="curve" smooth="yes"/>
      <point x="127" y="91"/>
      <point x="128" y="104"/>
    </contour>
  </outline>
</glyph>
<glyph name="circumflex" format="2">
  <advance width="530"/>
  <unicode hex="02C6"/>
  <anchor x="203" y="529" name="_top"/>
  <outline>
    <contour>
      <point x="237" y="828" type="line"/>
      <point x="346" y="677" type="line"/>
      <point x="342" y="656" type="line"/>
      <point x="323" y="656" type="line"/>
      <point x="192" y="783" type="line"/>
      <point x="217" y="791" type="line"/>
      <point x="53" y="656" type="line"/>
      <point x="28" y="656" type="line"/>
      <point x="31" y="677" type="line"/>
      <point x="177" y="828" type="line"/>
    </contour>
  </outline>
</glyph>
<glyph name="breve" format="2">
  <advance width="530"/>
  <unicode hex="02D8"/>
  <anchor x="212" y="517" name="_top"/>
  <outline>
    <contour>
      <point x="200" y="675" type="curve" smooth="yes"/>
      <point x="303" y="675"/>
      <point x="340" y="723"/>
      <point x="344" y="824" type="curve"/>
      <point x="311" y="824" type="line"/>
      <point x="296" y="745"/>
      <point x="278" y="725"/>
      <point x="195" y="725" type="curve" smooth="yes"/>
      <point x="94" y="725"/>
      <point x="82" y="751"/>
      <point x="77" y="824" type="curve"/>
      <point x="43" y="824" type="line"/>
      <point x="42" y="815"/>
      <point x="42" y="807"/>
      <point x="42" y="800" type="curve" smooth="yes"/>
      <point x="42" y="792"/>
      <point x="43" y="784"/>
      <point x="43" y="778" type="curve" smooth="yes"/>
      <point x="50" y="715"/>
      <point x="83" y="675"/>
    </contour>
  </outline>
</glyph>
<glyph name="hungarumlaut" format="2">
  <advance width="530"/>
  <unicode hex="02DD"/>
  <anchor x="217" y="525" name="_top"/>
  <outline>
    <contour>
      <point x="39" y="807" type="curve" smooth="yes"/>
      <point x="-15" y="679" type="line"/>
      <point x="-18" y="661" type="line"/>
      <point x="6" y="661" type="line"/>
      <point x="91" y="765" type="line" smooth="yes"/>
      <point x="116" y="796"/>
      <point x="132" y="809"/>
      <point x="132" y="830" type="curve" smooth="yes"/>
      <point x="132" y="832"/>
      <point x="131" y="833"/>
      <point x="131" y="835" type="curve" smooth="yes"/>
      <point x="130" y="849"/>
      <point x="115" y="862"/>
      <point x="92" y="862" type="curve" smooth="yes"/>
      <point x="61" y="862"/>
      <point x="54" y="841"/>
    </contour>
    <contour>
      <point x="228" y="807" type="curve" smooth="yes"/>
      <point x="174" y="679" type="line"/>
      <point x="170" y="661" type="line"/>
      <point x="194" y="661" type="line"/>
      <point x="279" y="765" type="line" smooth="yes"/>
      <point x="304" y="796"/>
      <point x="320" y="809"/>
      <point x="320" y="830" type="curve" smooth="yes"/>
      <point x="320" y="832"/>
      <point x="319" y="833"/>
      <point x="319" y="835" type="curve" smooth="yes"/>
      <point x="318" y="849"/>
      <point x="303" y="862"/>
      <point x="281" y="862" type="curve" smooth="yes"/>
      <point x="249" y="862"/>
      <point x="242" y="841"/>
    </contour>
  </outline>
</glyph>
<glyph name="Germandbls" format="2">
  <advance width="867"/>
  <unicode hex="1E9E"/>
  <outline>
    <contour>
      <point x="367" y="236" type="curve"/>
      <point x="318" y="236" type="line"/>
      <point x="281" y="0" type="line"/>
      <point x="322" y="0" type="line"/>
      <point x="362" y="211" type="line"/>
      <point x="345" y="188" type="line"/>
      <point x="371" y="65"/>
      <point x="429" y="-14"/>
      <point x="575" y="-14" type="curve" smooth="yes"/>
      <point x="708" y="-14"/>
      <point x="776" y="61"/>
      <point x="776" y="161" type="curve" smooth="yes"/>
      <point x="776" y="169"/>
      <point x="775" y="177"/>
      <point x="775" y="185" type="curve" smooth="yes"/>
      <point x="763" y="296"/>
      <point x="674" y="351"/>
      <point x="496" y="411" type="curve"/>
      <point x="497" y="387" type="line"/>
      <point x="733" y="669" type="line"/>
      <point x="740" y="710" type="line"/>
      <point x="434" y="710" type="line" smooth="yes"/>
      <point x="244" y="710"/>
      <point x="178" y="627"/>
      <point x="153" y="475" type="curve" smooth="yes"/>
      <point x="92" y="80" type="line" smooth="yes"/>
      <point x="87" y="51"/>
      <point x="47" y="44"/>
      <point x="-5" y="44" type="curve" smooth="yes"/>
      <point x="-17" y="44" type="line"/>
      <point x="-24" y="0" type="line"/>
      <point x="127" y="0" type="line"/>
      <point x="204" y="482" type="line" smooth="yes"/>
      <point x="223" y="598"/>
      <point x="259" y="671"/>
      <point x="433" y="671" type="curve"/>
      <point x="719" y="671" type="line"/>
      <point x="701" y="699" type="line"/>
      <point x="468" y="416" type="line"/>
      <point x="462" y="383" type="line"/>
      <point x="637" y="326"/>
      <point x="713" y="281"/>
      <point x="724" y="185" type="curve" smooth="yes"/>
      <point x="724" y="176"/>
      <point x="725" y="168"/>
      <point x="725" y="160" type="curve" smooth="yes"/>
      <point x="725" y="79"/>
      <point x="678" y="23"/>
      <point x="572" y="23" type="curve" smooth="yes"/>
      <point x="432" y="23"/>
      <point x="391" y="110"/>
    </contour>
  </outline>
</glyph>
<glyph name="emdash" format="2">
  <advance width="1083"/>
  <unicode hex="2014"/>
  <outline>
    <contour>
      <point x="63" y="333" type="line"/>
      <point x="56" y="297" type="line"/>
      <point x="954" y="297" type="line"/>
      <point x="960" y="333" type="line"/>
    </contour>
  </outline>
</glyph>
<glyph name="numero" format="2">
  <advance width="1373"/>
  <unicode hex="2116"/>
  <outline>
    <contour>
      <point x="910" y="184" type="line"/>
      <point x="1288" y="184" type="line"/>
      <point x="1280" y="148" type="line"/>
      <point x="903" y="148" type="line"/>
    </contour>
    <contour>
      <point x="59" y="0" type="line"/>
      <point x="330" y="0" type="line"/>
      <point x="332" y="40" type="line"/>
      <point x="319" y="40" type="line" smooth="yes"/>
      <point x="280" y="40"/>
      <point x="220" y="47"/>
      <point x="220" y="59" type="curve" smooth="yes"/>
      <point x="220" y="59"/>
      <point x="220" y="59"/>
      <point x="220" y="59" type="curve" smooth="yes"/>
      <point x="253" y="683" type="line"/>
      <point x="244" y="682" type="line"/>
      <point x="695" y="0" type="line"/>
      <point x="754" y="0" type="line"/>
      <point x="787" y="626" type="line" smooth="yes"/>
      <point x="789" y="656"/>
      <point x="820" y="670"/>
      <point x="880" y="670" type="curve" smooth="yes"/>
      <point x="903" y="670" type="line"/>
      <point x="904" y="710" type="line"/>
      <point x="633" y="710" type="line"/>
      <point x="632" y="670" type="line"/>
      <point x="645" y="670" type="line" smooth="yes"/>
      <point x="684" y="670"/>
      <point x="744" y="663"/>
      <point x="744" y="651" type="curve" smooth="yes"/>
      <point x="744" y="651"/>
      <point x="744" y="651"/>
      <point x="744" y="651" type="curve" smooth="yes"/>
      <point x="711" y="35" type="line"/>
      <point x="718" y="46" type="line"/>
      <point x="279" y="710" type="line"/>
      <point x="96" y="710" type="line"/>
      <point x="95" y="670" type="line"/>
      <point x="118" y="670" type="line" smooth="yes"/>
      <point x="176" y="670"/>
      <point x="205" y="654"/>
      <point x="205" y="628" type="curve" smooth="yes"/>
      <point x="205" y="627"/>
      <point x="205" y="627"/>
      <point x="205" y="626" type="curve" smooth="yes"/>
      <point x="176" y="84" type="line" smooth="yes"/>
      <point x="174" y="54"/>
      <point x="144" y="40"/>
      <point x="84" y="40" type="curve" smooth="yes"/>
      <point x="61" y="40" type="line"/>
    </contour>
    <contour>
      <point x="1094" y="308" type="curve" smooth="yes"/>
      <point x="1255" y="308"/>
      <point x="1303" y="440"/>
      <point x="1303" y="538" type="curve" smooth="yes"/>
      <point x="1303" y="549"/>
      <point x="1302" y="559"/>
      <point x="1301" y="568" type="curve" smooth="yes"/>
      <point x="1291" y="666"/>
      <point x="1220" y="730"/>
      <point x="1110" y="730" type="curve" smooth="yes"/>
      <point x="948" y="730"/>
      <point x="901" y="598"/>
      <point x="901" y="500" type="curve" smooth="yes"/>
      <point x="901" y="489"/>
      <point x="902" y="479"/>
      <point x="903" y="470" type="curve" smooth="yes"/>
      <point x="913" y="372"/>
      <point x="984" y="308"/>
    </contour>
    <contour>
      <point x="1110" y="694" type="curve" smooth="yes"/>
      <point x="1195" y="694"/>
      <point x="1236" y="656"/>
      <point x="1246" y="565" type="curve" smooth="yes"/>
      <point x="1247" y="554"/>
      <point x="1247" y="543"/>
      <point x="1247" y="531" type="curve" smooth="yes"/>
      <point x="1247" y="494"/>
      <point x="1241" y="452"/>
      <point x="1225" y="418" type="curve" smooth="yes"/>
      <point x="1202" y="377"/>
      <point x="1164" y="344"/>
      <point x="1093" y="344" type="curve" smooth="yes"/>
      <point x="1009" y="344"/>
      <point x="968" y="382"/>
      <point x="958" y="473" type="curve" smooth="yes"/>
      <point x="957" y="484"/>
      <point x="957" y="495"/>
      <point x="957" y="507" type="curve" smooth="yes"/>
      <point x="957" y="544"/>
      <point x="963" y="586"/>
      <point x="979" y="620" type="curve" smooth="yes"/>
      <point x="1002" y="661"/>
      <point x="1040" y="694"/>
    </contour>
  </outline>
</glyph>
<glyph name="lozenge" format="2">
  <advance width="736"/>
  <unicode hex="25CA"/>
  <outline>
    <contour>
      <point x="304" y="8" type="line"/>
      <point x="67" y="375" type="line"/>
      <point x="60" y="328" type="line"/>
      <point x="418" y="698" type="line"/>
      <point x="364" y="702" type="line"/>
      <point x="606" y="332" type="line"/>
      <point x="606" y="379" type="line"/>
      <point x="252" y="12" type="line"/>
    </contour>
    <contour>
      <point x="253" y="0" type="line"/>
      <point x="302" y="0" type="line"/>
      <point x="636" y="343" type="line"/>
      <point x="641" y="367" type="line"/>
      <point x="416" y="710" type="line"/>
      <point x="366" y="710" type="line"/>
      <point x="32" y="367" type="line"/>
      <point x="27" y="343" type="line"/>
    </contour>
  </outline>
</glyph>
<glyph name="acute.uc" format="2">
  <advance width="530"/>
  <anchor x="146" y="727" name="_top"/>
  <outline>
    <contour>
      <point x="276" y="900" type="curve" smooth="yes"/>
      <point x="188" y="814" type="line"/>
      <point x="185" y="793" type="line"/>
      <point x="209" y="793" type="line"/>
      <point x="334" y="863" type="line" smooth="yes"/>
      <point x="369" y="882"/>
      <point x="390" y="897"/>
      <point x="390" y="919" type="curve" smooth="yes"/>
      <point x="390.0" y="931.0"/>
      <point x="381" y="954"/>
      <point x="352" y="954" type="curve" smooth="yes"/>
      <point x="325" y="954"/>
      <point x="306" y="930"/>
    </contour>
  </outline>
</glyph>
<glyph name="at.uc" format="2">
  <advance width="964"/>
  <outline>
    <contour>
      <point x="430" y="149" type="curve" smooth="yes"/>
      <point x="506" y="149"/>
      <point x="541" y="193"/>
      <point x="616" y="273" type="curve"/>
      <point x="589" y="287" type="line"/>
      <point x="541" y="234"/>
      <point x="507" y="183"/>
      <point x="433" y="183" type="curve" smooth="yes"/>
      <point x="375" y="183"/>
      <point x="357" y="211"/>
      <point x="357" y="269" type="curve" smooth="yes"/>
      <point x="357" y="374"/>
      <point x="429" y="540"/>
      <point x="551" y="540" type="curve" smooth="yes"/>
      <point x="629" y="540"/>
      <point x="656" y="490"/>
      <point x="661" y="385" type="curve"/>
      <point x="687" y="432" type="line"/>
      <point x="680" y="511"/>
      <point x="648" y="574"/>
      <point x="556" y="574" type="curve" smooth="yes"/>
      <point x="408" y="574"/>
      <point x="301" y="411"/>
      <point x="301" y="267" type="curve" smooth="yes"/>
      <point x="301" y="185"/>
      <point x="349" y="149"/>
    </contour>
    <contour>
      <point x="490" y="-25" type="curve" smooth="yes"/>
      <point x="604" y="-25"/>
      <point x="692" y="-10"/>
      <point x="783" y="25" type="curve"/>
      <point x="780" y="64" type="line"/>
      <point x="690" y="28"/>
      <point x="604" y="10"/>
      <point x="490" y="10" type="curve" smooth="yes"/>
      <point x="284" y="10"/>
      <point x="134" y="98"/>
      <point x="134" y="300" type="curve" smooth="yes"/>
      <point x="134" y="564"/>
      <point x="339" y="710"/>
      <point x="573" y="710" type="curve" smooth="yes"/>
      <point x="793" y="710"/>
      <point x="881" y="605"/>
      <point x="881" y="462" type="curve" smooth="yes"/>
      <point x="881" y="295"/>
      <point x="808" y="183"/>
      <point x="701" y="183" type="curve" smooth="yes"/>
      <point x="655" y="183"/>
      <point x="623" y="207"/>
      <point x="623" y="246" type="curve" smooth="yes"/>
      <point x="623" y="265"/>
      <point x="625" y="278"/>
      <point x="636" y="305" type="curve"/>
      <point x="747" y="568" type="line"/>
      <point x="724" y="568" type="line"/>
      <point x="665" y="477" type="line"/>
      <point x="660" y="481" type="line"/>
      <point x="566" y="251" type="line"/>
      <point x="573" y="250" type="line"/>
      <point x="580" y="185"/>
      <point x="618" y="147"/>
      <point x="697" y="147" type="curve" smooth="yes"/>
      <point x="840" y="147"/>
      <point x="932" y="293"/>
      <point x="932" y="462" type="curve" smooth="yes"/>
      <point x="932" y="631"/>
      <point x="817" y="745"/>
      <point x="574" y="745" type="curve" smooth="yes"/>
      <point x="305" y="745"/>
      <point x="83" y="575"/>
      <point x="83" y="300" type="curve" smooth="yes"/>
      <point x="83" y="83"/>
      <point x="253" y="-25"/>
    </contour>
  </outline>
</glyph>
<glyph name="braceleft.uc" format="2">
  <advance width="497"/>
  <guideline x="143" y="318" angle="81" identifier="V2J8weFKSw"/>
  <outline>
    <contour>
      <point x="379" y="254" type="curve" smooth="yes"/>
      <point x="379" y="284"/>
      <point x="359" y="294"/>
      <point x="180" y="324" type="curve"/>
      <point x="182" y="337" type="line"/>
      <point x="386" y="361"/>
      <point x="405" y="374"/>
      <point x="405" y="414" type="curve" smooth="yes"/>
      <point x="405" y="469"/>
      <point x="282" y="505"/>
      <point x="282" y="597" type="curve" smooth="yes"/>
      <point x="282.0" y="672.0"/>
      <point x="338" y="712"/>
      <point x="518" y="708" type="curve"/>
      <point x="522" y="750" type="line"/>
      <point x="320" y="753"/>
      <point x="231" y="702"/>
      <point x="231" y="590" type="curve" smooth="yes"/>
      <point x="231.0" y="499.0"/>
      <point x="324" y="467"/>
      <point x="370" y="388" type="curve"/>
      <point x="372" y="405" type="line"/>
      <point x="149" y="357" type="line"/>
      <point x="141" y="306" type="line"/>
      <point x="346" y="248" type="line"/>
      <point x="345" y="265" type="line"/>
      <point x="285" y="183"/>
      <point x="133" y="144"/>
      <point x="133" y="25" type="curve" smooth="yes"/>
      <point x="133" y="-65"/>
      <point x="220" y="-100"/>
      <point x="380" y="-97" type="curve"/>
      <point x="390" y="-55" type="line"/>
      <point x="223" y="-55"/>
      <point x="183" y="-23"/>
      <point x="183" y="32" type="curve" smooth="yes"/>
      <point x="183.0" y="138.0"/>
      <point x="379" y="184"/>
    </contour>
  </outline>
</glyph>
<glyph name="breve.uc" format="2">
  <advance width="530"/>
  <anchor x="193" y="694" name="_top"/>
  <outline>
    <contour>
      <point x="186" y="794" type="curve" smooth="yes"/>
      <point x="73" y="794"/>
      <point x="29" y="830"/>
      <point x="22" y="895" type="curve" smooth="yes"/>
      <point x="21" y="901"/>
      <point x="21" y="907"/>
      <point x="21" y="914" type="curve" smooth="yes"/>
      <point x="21" y="922"/>
      <point x="21" y="931"/>
      <point x="23" y="942" type="curve"/>
      <point x="62" y="942" type="line"/>
      <point x="65" y="870"/>
      <point x="82" y="847"/>
      <point x="185" y="847" type="curve" smooth="yes"/>
      <point x="269" y="847"/>
      <point x="293" y="860"/>
      <point x="305" y="942" type="curve"/>
      <point x="344" y="942" type="line"/>
      <point x="342" y="842"/>
      <point x="302" y="794"/>
    </contour>
  </outline>
</glyph>
<glyph name="caron.alt" format="2">
  <advance width="530"/>
  <anchor x="42" y="574" name="_right"/>
  <outline>
    <contour>
      <point x="171" y="517" type="line"/>
      <point x="128" y="517" type="line"/>
      <point x="131" y="541" type="line"/>
      <point x="161" y="710" type="line"/>
      <point x="243" y="710" type="line"/>
    </contour>
  </outline>
</glyph>
<glyph name="circumflex.uc" format="2">
  <advance width="530"/>
  <anchor x="187" y="694" name="_top"/>
  <outline>
    <contour>
      <point x="228" y="955" type="line"/>
      <point x="344" y="803" type="line"/>
      <point x="339" y="782" type="line"/>
      <point x="319" y="782" type="line"/>
      <point x="174" y="912" type="line"/>
      <point x="208" y="913" type="line"/>
      <point x="33" y="782" type="line"/>
      <point x="5" y="782" type="line"/>
      <point x="10" y="803" type="line"/>
      <point x="162" y="955" type="line"/>
    </contour>
  </outline>
</glyph>
<glyph name="circumflex_hook.uc" format="2">
  <advance width="526"/>
  <anchor x="186" y="694" name="_top"/>
  <outline>
    <contour>
      <point x="276" y="1046" type="line"/>
      <point x="291" y="1117"/>
      <point x="340" y="1150"/>
      <point x="425" y="1150" type="curve" smooth="yes"/>
      <point x="523" y="1150"/>
      <point x="560" y="1104"/>
      <point x="565" y="1057" type="curve" smooth="yes"/>
      <point x="565" y="1054"/>
      <point x="565" y="1050"/>
      <point x="565" y="1047" type="curve" smooth="yes"/>
      <point x="565" y="985"/>
      <point x="501" y="959"/>
      <point x="410" y="956" type="curve"/>
      <point x="443" y="984" type="line"/>
      <point x="430" y="898" type="line"/>
      <point x="384" y="898" type="line"/>
      <point x="397" y="990" type="line"/>
      <point x="462" y="993"/>
      <point x="510" y="999"/>
      <point x="510" y="1049" type="curve" smooth="yes"/>
      <point x="510" y="1052"/>
      <point x="510" y="1055"/>
      <point x="510" y="1058" type="curve" smooth="yes"/>
      <point x="506" y="1093"/>
      <point x="482" y="1111"/>
      <point x="427" y="1111" type="curve" smooth="yes"/>
      <point x="366" y="1111"/>
      <point x="346" y="1092"/>
      <point x="334" y="1046" type="curve"/>
    </contour>
    <contour>
      <point x="128" y="955" type="line"/>
      <point x="260" y="803" type="line"/>
      <point x="257" y="782" type="line"/>
      <point x="237" y="782" type="line"/>
      <point x="78" y="912" type="line"/>
      <point x="112" y="913" type="line"/>
      <point x="-49" y="782" type="line"/>
      <point x="-77" y="782" type="line"/>
      <point x="-74" y="803" type="line"/>
      <point x="62" y="955" type="line"/>
    </contour>
  </outline>
</glyph>
<glyph name="circumflex_tilde.uc" format="2">
  <advance width="530"/>
  <anchor x="186" y="694" name="_top"/>
  <outline>
    <contour>
      <point x="266" y="1002" type="curve" smooth="yes"/>
      <point x="314" y="1002"/>
      <point x="345" y="1038"/>
      <point x="372" y="1138" type="curve"/>
      <point x="330" y="1152" type="line"/>
      <point x="313" y="1095"/>
      <point x="297" y="1050"/>
      <point x="265" y="1050" type="curve" smooth="yes"/>
      <point x="220" y="1050"/>
      <point x="205" y="1147"/>
      <point x="125" y="1147" type="curve" smooth="yes"/>
      <point x="68" y="1147"/>
      <point x="45" y="1112"/>
      <point x="18" y="1015" type="curve"/>
      <point x="61" y="1001" type="line"/>
      <point x="79" y="1067"/>
      <point x="95" y="1098"/>
      <point x="123" y="1098" type="curve" smooth="yes"/>
      <point x="172" y="1098"/>
      <point x="181" y="1002"/>
    </contour>
    <contour>
      <point x="229" y="946" type="line"/>
      <point x="344" y="803" type="line"/>
      <point x="340" y="782" type="line"/>
      <point x="318" y="782" type="line"/>
      <point x="175" y="902" type="line"/>
      <point x="212" y="909" type="line"/>
      <point x="33" y="782" type="line"/>
      <point x="5" y="782" type="line"/>
      <point x="9" y="803" type="line"/>
      <point x="163" y="946" type="line"/>
    </contour>
  </outline>
</glyph>
<glyph name="dblgrave" format="2">
  <advance width="530"/>
  <anchor x="197" y="539" name="_top"/>
  <outline>
    <contour>
      <point x="353" y="804" type="line" smooth="yes"/>
      <point x="340" y="841"/>
      <point x="328" y="862"/>
      <point x="296" y="862" type="curve" smooth="yes"/>
      <point x="274" y="862"/>
      <point x="259" y="848"/>
      <point x="259" y="832" type="curve" smooth="yes"/>
      <point x="259" y="832"/>
      <point x="259" y="831"/>
      <point x="259" y="830" type="curve" smooth="yes"/>
      <point x="261" y="813"/>
      <point x="274" y="796"/>
      <point x="305" y="758" type="curve" smooth="yes"/>
      <point x="386" y="661" type="line"/>
      <point x="410" y="661" type="line"/>
      <point x="403" y="679" type="line"/>
    </contour>
    <contour>
      <point x="165" y="804" type="line" smooth="yes"/>
      <point x="151" y="841"/>
      <point x="139" y="862"/>
      <point x="108" y="862" type="curve" smooth="yes"/>
      <point x="86" y="862"/>
      <point x="71" y="848"/>
      <point x="71" y="832" type="curve" smooth="yes"/>
      <point x="71" y="832"/>
      <point x="71" y="831"/>
      <point x="71" y="830" type="curve" smooth="yes"/>
      <point x="73" y="813"/>
      <point x="85" y="796"/>
      <point x="117" y="758" type="curve" smooth="yes"/>
      <point x="198" y="661" type="line"/>
      <point x="222" y="661" type="line"/>
      <point x="214" y="679" type="line"/>
    </contour>
  </outline>
</glyph>
<glyph name="f.short" format="2">
  <advance width="388"/>
  <outline>
    <contour>
      <point x="22" y="565" type="line"/>
      <point x="18" y="526" type="line"/>
      <point x="370" y="526" type="line"/>
      <point x="374" y="565" type="line"/>
    </contour>
    <contour>
      <point x="122" y="-223" type="line"/>
      <point x="210" y="660" type="line" smooth="yes"/>
      <point x="217" y="730"/>
      <point x="247" y="748"/>
      <point x="307" y="748" type="curve" smooth="yes"/>
      <point x="335" y="748"/>
      <point x="360" y="746"/>
      <point x="384" y="741" type="curve"/>
      <point x="391" y="783" type="line"/>
      <point x="366" y="788"/>
      <point x="343" y="790"/>
      <point x="307" y="790" type="curve" smooth="yes"/>
      <point x="214" y="790"/>
      <point x="163" y="757"/>
      <point x="155" y="665" type="curve" smooth="yes"/>
      <point x="79" y="-223" type="line"/>
    </contour>
  </outline>
</glyph>
<glyph name="five.linprop" format="2">
  <advance width="578"/>
  <outline>
    <contour>
      <point x="230" y="-11" type="curve" smooth="yes"/>
      <point x="384" y="-11"/>
      <point x="472" y="104"/>
      <point x="472" y="249" type="curve" smooth="yes"/>
      <point x="472" y="262"/>
      <point x="471" y="275"/>
      <point x="470" y="288" type="curve" smooth="yes"/>
      <point x="458" y="396"/>
      <point x="383" y="472"/>
      <point x="264" y="472" type="curve" smooth="yes"/>
      <point x="180" y="472"/>
      <point x="125" y="418"/>
      <point x="78" y="347" type="curve"/>
      <point x="89" y="353" type="line"/>
      <point x="142" y="690" type="line"/>
      <point x="125" y="666" type="line"/>
      <point x="460" y="666" type="line"/>
      <point x="482" y="710" type="line"/>
      <point x="105" y="710" type="line"/>
      <point x="48" y="337" type="line"/>
      <point x="100" y="337" type="line"/>
      <point x="139" y="388"/>
      <point x="174" y="432"/>
      <point x="263" y="432" type="curve" smooth="yes"/>
      <point x="335" y="432"/>
      <point x="406" y="385"/>
      <point x="416" y="285" type="curve" smooth="yes"/>
      <point x="417" y="273"/>
      <point x="418" y="262"/>
      <point x="418" y="250" type="curve" smooth="yes"/>
      <point x="418" y="138"/>
      <point x="361" y="30"/>
      <point x="230" y="30" type="curve" smooth="yes"/>
      <point x="108" y="30"/>
      <point x="45" y="83"/>
      <point x="8" y="156" type="curve"/>
      <point x="-40" y="142" type="line"/>
      <point x="-2" y="66"/>
      <point x="73" y="-11"/>
    </contour>
  </outline>
</glyph>
<glyph name="five.lintab" format="2">
  <advance width="680"/>
  <outline>
    <contour>
      <point x="246" y="-11" type="curve" smooth="yes"/>
      <point x="413" y="-11"/>
      <point x="484" y="128"/>
      <point x="484" y="263" type="curve" smooth="yes"/>
      <point x="484" y="277"/>
      <point x="483" y="291"/>
      <point x="482" y="304" type="curve" smooth="yes"/>
      <point x="470" y="421"/>
      <point x="394" y="472"/>
      <point x="300" y="472" type="curve" smooth="yes"/>
      <point x="213" y="472"/>
      <point x="161" y="420"/>
      <point x="108" y="328" type="curve"/>
      <point x="126" y="343" type="line"/>
      <point x="181" y="690" type="line"/>
      <point x="163" y="666" type="line"/>
      <point x="478" y="666" type="line"/>
      <point x="497" y="710" type="line"/>
      <point x="144" y="710" type="line"/>
      <point x="82" y="315" type="line"/>
      <point x="124" y="315" type="line"/>
      <point x="174" y="391"/>
      <point x="211" y="431"/>
      <point x="300" y="431" type="curve" smooth="yes"/>
      <point x="370" y="431"/>
      <point x="420" y="391"/>
      <point x="429" y="307" type="curve" smooth="yes"/>
      <point x="430" y="295"/>
      <point x="431" y="282"/>
      <point x="431" y="269" type="curve" smooth="yes"/>
      <point x="431" y="160"/>
      <point x="384" y="30"/>
      <point x="245" y="30" type="curve" smooth="yes"/>
      <point x="113" y="30"/>
      <point x="83" y="109"/>
      <point x="62" y="147" type="curve"/>
      <point x="11" y="132" type="line"/>
      <point x="43" y="60"/>
      <point x="105" y="-11"/>
    </contour>
  </outline>
</glyph>
<glyph name="five.oldtab" format="2">
  <advance width="680"/>
  <outline>
    <contour>
      <point x="233" y="-72" type="curve" smooth="yes"/>
      <point x="399" y="-72"/>
      <point x="469" y="68"/>
      <point x="469" y="205" type="curve" smooth="yes"/>
      <point x="469" y="219"/>
      <point x="468" y="233"/>
      <point x="467" y="247" type="curve" smooth="yes"/>
      <point x="454" y="367"/>
      <point x="379" y="419"/>
      <point x="285" y="419" type="curve" smooth="yes"/>
      <point x="199" y="419"/>
      <point x="146" y="368"/>
      <point x="92" y="276" type="curve"/>
      <point x="110" y="291" type="line"/>
      <point x="166" y="637" type="line"/>
      <point x="149" y="613" type="line"/>
      <point x="463" y="613" type="line"/>
      <point x="483" y="657" type="line"/>
      <point x="129" y="657" type="line"/>
      <point x="66" y="263" type="line"/>
      <point x="108" y="263" type="line"/>
      <point x="159" y="339"/>
      <point x="195" y="379"/>
      <point x="284" y="379" type="curve" smooth="yes"/>
      <point x="355" y="379"/>
      <point x="405" y="336"/>
      <point x="414" y="250" type="curve" smooth="yes"/>
      <point x="415" y="237"/>
      <point x="416" y="223"/>
      <point x="416" y="210" type="curve" smooth="yes"/>
      <point x="416" y="99"/>
      <point x="370" y="-32"/>
      <point x="230" y="-32" type="curve" smooth="yes"/>
      <point x="98" y="-32"/>
      <point x="68" y="48"/>
      <point x="47" y="86" type="curve"/>
      <point x="-2" y="71" type="line"/>
      <point x="29" y="-1"/>
      <point x="91" y="-72"/>
    </contour>
  </outline>
</glyph>
<glyph name="four.oldprop" format="2">
  <advance width="633"/>
  <outline>
    <contour>
      <point x="-1" y="129" type="line"/>
      <point x="551" y="133" type="line"/>
      <point x="558" y="174" type="line"/>
      <point x="35" y="174" type="line"/>
      <point x="31" y="156" type="line"/>
      <point x="457" y="651" type="line"/>
      <point x="451" y="657" type="line"/>
      <point x="412" y="657" type="line"/>
      <point x="5" y="186" type="line"/>
    </contour>
    <contour>
      <point x="379" y="-65" type="line"/>
      <point x="494" y="657" type="line"/>
      <point x="429" y="657" type="line"/>
      <point x="442" y="645" type="line"/>
      <point x="330" y="-65" type="line"/>
    </contour>
  </outline>
</glyph>
<glyph name="grave.uc" format="2">
  <advance width="530"/>
  <anchor x="210" y="694" name="_top"/>
  <outline>
    <contour>
      <point x="269" y="793" type="line"/>
      <point x="139" y="866" type="line" smooth="yes"/>
      <point x="113" y="880"/>
      <point x="86" y="895"/>
      <point x="84" y="917" type="curve" smooth="yes"/>
      <point x="83" y="918"/>
      <point x="83" y="919"/>
      <point x="83" y="920" type="curve" smooth="yes"/>
      <point x="83" y="940"/>
      <point x="101" y="954"/>
      <point x="124" y="954" type="curve" smooth="yes"/>
      <point x="154" y="954"/>
      <point x="179" y="926"/>
      <point x="215" y="888" type="curve" smooth="yes"/>
      <point x="293" y="814" type="line"/>
      <point x="289" y="793" type="line"/>
    </contour>
  </outline>
</glyph>
<glyph name="minus.sub" format="2">
  <advance width="446"/>
  <outline>
    <contour>
      <point x="383" y="100" type="line"/>
      <point x="54" y="100" type="line"/>
      <point x="48" y="66" type="line"/>
      <point x="377" y="66" type="line"/>
    </contour>
  </outline>
</glyph>
<glyph name="minus.sup" format="2">
  <advance width="446"/>
  <outline>
    <contour>
      <point x="362" y="584" type="line"/>
      <point x="33" y="584" type="line"/>
      <point x="25" y="550" type="line"/>
      <point x="354" y="550" type="line"/>
    </contour>
  </outline>
</glyph>
<glyph name="nine.oldprop" format="2">
  <advance width="594"/>
  <outline>
    <contour>
      <point x="14" y="-43" type="line"/>
      <point x="228" y="-38"/>
      <point x="363" y="45"/>
      <point x="423" y="179" type="curve" smooth="yes"/>
      <point x="449" y="230"/>
      <point x="461" y="289"/>
      <point x="461" y="354" type="curve" smooth="yes"/>
      <point x="461" y="374"/>
      <point x="460" y="394"/>
      <point x="457" y="415" type="curve" smooth="yes"/>
      <point x="442" y="566"/>
      <point x="372" y="627"/>
      <point x="264" y="627" type="curve" smooth="yes"/>
      <point x="168" y="627"/>
      <point x="113" y="576"/>
      <point x="90" y="505" type="curve" smooth="yes"/>
      <point x="81" y="476"/>
      <point x="76" y="443"/>
      <point x="76" y="410" type="curve" smooth="yes"/>
      <point x="76" y="398"/>
      <point x="76" y="385"/>
      <point x="78" y="373" type="curve" smooth="yes"/>
      <point x="85" y="300"/>
      <point x="128" y="236"/>
      <point x="225" y="236" type="curve" smooth="yes"/>
      <point x="335" y="236"/>
      <point x="387" y="295"/>
      <point x="469" y="443" type="curve"/>
      <point x="471" y="399" type="line"/>
      <point x="409" y="258"/>
      <point x="329" y="196"/>
      <point x="223" y="196" type="curve" smooth="yes"/>
      <point x="99" y="196"/>
      <point x="34" y="272"/>
      <point x="24" y="375" type="curve" smooth="yes"/>
      <point x="22" y="388"/>
      <point x="22" y="401"/>
      <point x="22" y="414" type="curve" smooth="yes"/>
      <point x="22" y="551"/>
      <point x="102" y="667"/>
      <point x="263" y="667" type="curve"/>
      <point x="401" y="667"/>
      <point x="489" y="598"/>
      <point x="508" y="420" type="curve" smooth="yes"/>
      <point x="510" y="399"/>
      <point x="511" y="379"/>
      <point x="511" y="359" type="curve" smooth="yes"/>
      <point x="511" y="119"/>
      <point x="355" y="-73"/>
      <point x="23" y="-83" type="curve"/>
    </contour>
  </outline>
</glyph>
<glyph name="nine.oldtab" format="2">
  <advance width="680"/>
  <outline>
    <contour>
      <point x="38" y="-44" type="line"/>
      <point x="41" y="-44"/>
      <point x="44" y="-44"/>
      <point x="47" y="-44" type="curve" smooth="yes"/>
      <point x="271" y="-44"/>
      <point x="386" y="60"/>
      <point x="428" y="218" type="curve" smooth="yes"/>
      <point x="441" y="261"/>
      <point x="447" y="307"/>
      <point x="447" y="359" type="curve" smooth="yes"/>
      <point x="447" y="386"/>
      <point x="446" y="413"/>
      <point x="443" y="442" type="curve" smooth="yes"/>
      <point x="428" y="585"/>
      <point x="356" y="627"/>
      <point x="259" y="627" type="curve" smooth="yes"/>
      <point x="170" y="627"/>
      <point x="121" y="575"/>
      <point x="97" y="510" type="curve" smooth="yes"/>
      <point x="85" y="476"/>
      <point x="80" y="437"/>
      <point x="80" y="402" type="curve" smooth="yes"/>
      <point x="80" y="389"/>
      <point x="80" y="376"/>
      <point x="82" y="364" type="curve" smooth="yes"/>
      <point x="90" y="287"/>
      <point x="137" y="237"/>
      <point x="235" y="237" type="curve" smooth="yes"/>
      <point x="332" y="237"/>
      <point x="379" y="298"/>
      <point x="456" y="427" type="curve"/>
      <point x="457" y="385" type="line"/>
      <point x="396" y="261"/>
      <point x="321" y="196"/>
      <point x="229" y="196" type="curve" smooth="yes"/>
      <point x="113" y="196"/>
      <point x="38" y="260"/>
      <point x="27" y="366" type="curve" smooth="yes"/>
      <point x="25" y="379"/>
      <point x="24" y="392"/>
      <point x="24" y="406" type="curve" smooth="yes"/>
      <point x="24" y="537"/>
      <point x="94" y="667"/>
      <point x="258" y="667" type="curve" smooth="yes"/>
      <point x="394" y="667"/>
      <point x="476" y="602"/>
      <point x="492" y="444" type="curve" smooth="yes"/>
      <point x="495" y="416"/>
      <point x="497" y="388"/>
      <point x="497" y="361" type="curve" smooth="yes"/>
      <point x="497" y="124"/>
      <point x="381" y="-83"/>
      <point x="42" y="-83" type="curve" smooth="yes"/>
      <point x="41" y="-83"/>
      <point x="40" y="-83"/>
      <point x="40" y="-83" type="curve"/>
    </contour>
  </outline>
</glyph>
<glyph name="one.midprop" format="2">
  <advance width="507"/>
  <outline>
    <contour>
      <point x="231" y="72" type="curve" smooth="yes"/>
      <point x="326" y="683" type="line"/>
      <point x="285" y="683" type="line"/>
      <point x="246" y="602"/>
      <point x="184" y="580"/>
      <point x="84" y="577" type="curve"/>
      <point x="77" y="535" type="line"/>
      <point x="167" y="535"/>
      <point x="258" y="573"/>
      <point x="285" y="641" type="curve"/>
      <point x="268" y="627" type="line"/>
      <point x="183" y="72" type="line" smooth="yes"/>
      <point x="178" y="43"/>
      <point x="135" y="36"/>
      <point x="54" y="36" type="curve" smooth="yes"/>
      <point x="17" y="36" type="line"/>
      <point x="11" y="0" type="line"/>
      <point x="370" y="0" type="line"/>
      <point x="376" y="36" type="line"/>
      <point x="359" y="36" type="line" smooth="yes"/>
      <point x="276" y="36"/>
      <point x="231" y="42"/>
      <point x="231" y="68" type="curve" smooth="yes"/>
      <point x="231" y="69"/>
      <point x="231" y="71"/>
    </contour>
  </outline>
</glyph>
<glyph name="peseta.proportional" format="2">
  <advance width="823"/>
  <outline>
    <contour>
      <point x="-31" y="0" type="line"/>
      <point x="142" y="0" type="line"/>
      <point x="148" y="36" type="line"/>
      <point x="129" y="36" type="line" smooth="yes"/>
      <point x="114" y="36"/>
      <point x="84" y="39"/>
      <point x="84" y="46" type="curve" smooth="yes"/>
      <point x="84" y="46"/>
      <point x="84" y="46"/>
      <point x="84" y="46" type="curve" smooth="yes"/>
      <point x="117" y="251" type="line"/>
      <point x="200" y="251" type="line" smooth="yes"/>
      <point x="358" y="251"/>
      <point x="468" y="340"/>
      <point x="468" y="495" type="curve" smooth="yes"/>
      <point x="468" y="507"/>
      <point x="467" y="519"/>
      <point x="466" y="532" type="curve" smooth="yes"/>
      <point x="456" y="632"/>
      <point x="381" y="710"/>
      <point x="231" y="710" type="curve" smooth="yes"/>
      <point x="82" y="710" type="line"/>
      <point x="75" y="674" type="line"/>
      <point x="84" y="674" type="line"/>
      <point x="111" y="674"/>
      <point x="128" y="668"/>
      <point x="128" y="646" type="curve" smooth="yes"/>
      <point x="128" y="643"/>
      <point x="128" y="641"/>
      <point x="128" y="638" type="curve" smooth="yes"/>
      <point x="38" y="72" type="line" smooth="yes"/>
      <point x="34" y="43"/>
      <point x="13" y="36"/>
      <point x="-17" y="36" type="curve"/>
      <point x="-25" y="36" type="line"/>
    </contour>
    <contour>
      <point x="233" y="674" type="line" smooth="yes"/>
      <point x="349" y="674"/>
      <point x="407" y="617"/>
      <point x="416" y="531" type="curve" smooth="yes"/>
      <point x="417" y="522"/>
      <point x="418" y="514"/>
      <point x="418" y="505" type="curve" smooth="yes"/>
      <point x="418" y="496"/>
      <point x="417" y="485"/>
      <point x="416" y="468" type="curve" smooth="yes"/>
      <point x="405" y="359"/>
      <point x="325" y="287"/>
      <point x="196" y="287" type="curve" smooth="yes"/>
      <point x="123" y="287" type="line"/>
      <point x="183" y="674" type="line"/>
    </contour>
    <contour>
      <point x="585" y="539" type="line"/>
      <point x="519" y="118" type="line" smooth="yes"/>
      <point x="516" y="91"/>
      <point x="514" y="79"/>
      <point x="514" y="66" type="curve" smooth="yes"/>
      <point x="514" y="61"/>
      <point x="514" y="57"/>
      <point x="515" y="51" type="curve"/>
      <point x="518" y="19"/>
      <point x="544" y="0"/>
      <point x="606" y="0" type="curve" smooth="yes"/>
      <point x="640" y="0"/>
      <point x="707" y="0"/>
      <point x="718" y="0" type="curve"/>
      <point x="725" y="34" type="line"/>
      <point x="713" y="34"/>
      <point x="651" y="34"/>
      <point x="604" y="34" type="curve" smooth="yes"/>
      <point x="582" y="34"/>
      <point x="564" y="36"/>
      <point x="562" y="58" type="curve"/>
      <point x="562" y="61"/>
      <point x="561" y="63"/>
      <point x="561" y="66" type="curve" smooth="yes"/>
      <point x="561" y="73"/>
      <point x="562" y="81"/>
      <point x="565" y="102" type="curve" smooth="yes"/>
      <point x="660" y="710" type="line"/>
      <point x="625" y="710" type="line"/>
      <point x="611" y="624" type="line" smooth="yes"/>
      <point x="602" y="566"/>
      <point x="572" y="551"/>
      <point x="519" y="551" type="curve" smooth="yes"/>
      <point x="461" y="551" type="line"/>
      <point x="455" y="519" type="line"/>
      <point x="792" y="519" type="line"/>
      <point x="799" y="555" type="line"/>
      <point x="625" y="555" type="line"/>
    </contour>
  </outline>
</glyph>
<glyph name="three.lintab" format="2">
  <advance width="680"/>
  <outline>
    <contour>
      <point x="251" y="-11" type="curve" smooth="yes"/>
      <point x="401" y="-11"/>
      <point x="482" y="79"/>
      <point x="482" y="184" type="curve" smooth="yes"/>
      <point x="482" y="191"/>
      <point x="481" y="199"/>
      <point x="480" y="206" type="curve" smooth="yes"/>
      <point x="471" y="292"/>
      <point x="414" y="350"/>
      <point x="282" y="373" type="curve"/>
      <point x="283" y="357" type="line"/>
      <point x="289" y="387" type="line"/>
      <point x="279" y="376" type="line"/>
      <point x="407" y="381"/>
      <point x="493" y="435"/>
      <point x="493" y="553" type="curve" smooth="yes"/>
      <point x="493" y="562"/>
      <point x="493" y="571"/>
      <point x="492" y="581" type="curve" smooth="yes"/>
      <point x="482" y="672"/>
      <point x="399" y="735"/>
      <point x="271" y="735" type="curve" smooth="yes"/>
      <point x="197" y="735"/>
      <point x="131" y="710"/>
      <point x="106" y="697" type="curve"/>
      <point x="79" y="529" type="line"/>
      <point x="136" y="529" type="line"/>
      <point x="161" y="674" type="line"/>
      <point x="136" y="671"/>
      <point x="118" y="660"/>
      <point x="118" y="657" type="curve" smooth="yes"/>
      <point x="118" y="657"/>
      <point x="118" y="657"/>
      <point x="119" y="657" type="curve" smooth="yes"/>
      <point x="120" y="657"/>
      <point x="120" y="657"/>
      <point x="121" y="657" type="curve"/>
      <point x="138" y="665"/>
      <point x="193" y="694"/>
      <point x="273" y="694" type="curve" smooth="yes"/>
      <point x="369" y="694"/>
      <point x="431" y="656"/>
      <point x="439" y="584" type="curve" smooth="yes"/>
      <point x="440" y="573"/>
      <point x="440" y="563"/>
      <point x="440" y="554" type="curve" smooth="yes"/>
      <point x="440" y="439"/>
      <point x="362" y="393"/>
      <point x="234" y="393" type="curve" smooth="yes"/>
      <point x="149" y="393" type="line"/>
      <point x="141" y="355" type="line"/>
      <point x="222" y="355" type="line" smooth="yes"/>
      <point x="348" y="355"/>
      <point x="413" y="304"/>
      <point x="423" y="205" type="curve" smooth="yes"/>
      <point x="424" y="197"/>
      <point x="425" y="190"/>
      <point x="425" y="182" type="curve" smooth="yes"/>
      <point x="425" y="89"/>
      <point x="358" y="30"/>
      <point x="249" y="30" type="curve" smooth="yes"/>
      <point x="105" y="30"/>
      <point x="52" y="97"/>
      <point x="22" y="171" type="curve"/>
      <point x="-26" y="158" type="line"/>
      <point x="4" y="67"/>
      <point x="90" y="-11"/>
    </contour>
  </outline>
</glyph>
<glyph name="three.oldprop" format="2">
  <advance width="592"/>
  <outline>
    <contour>
      <point x="263" y="315" type="line"/>
      <point x="398" y="320"/>
      <point x="480" y="381"/>
      <point x="480" y="487" type="curve" smooth="yes"/>
      <point x="480" y="494"/>
      <point x="479" y="502"/>
      <point x="478" y="510" type="curve" smooth="yes"/>
      <point x="469" y="604"/>
      <point x="391" y="667"/>
      <point x="256" y="667" type="curve" smooth="yes"/>
      <point x="174" y="667"/>
      <point x="103" y="638"/>
      <point x="78" y="624" type="curve"/>
      <point x="53" y="463" type="line"/>
      <point x="110" y="463" type="line"/>
      <point x="134" y="611" type="line"/>
      <point x="108" y="609"/>
      <point x="90" y="597"/>
      <point x="90" y="591" type="curve" smooth="yes"/>
      <point x="90" y="589"/>
      <point x="90" y="588"/>
      <point x="92" y="587" type="curve"/>
      <point x="114" y="596"/>
      <point x="165" y="626"/>
      <point x="257" y="626" type="curve" smooth="yes"/>
      <point x="355" y="626"/>
      <point x="415" y="582"/>
      <point x="423" y="503" type="curve" smooth="yes"/>
      <point x="424" y="496"/>
      <point x="424" y="489"/>
      <point x="424" y="482" type="curve" smooth="yes"/>
      <point x="424" y="388"/>
      <point x="352" y="334"/>
      <point x="229" y="334" type="curve"/>
      <point x="123" y="334" type="line"/>
      <point x="116" y="296" type="line"/>
      <point x="209" y="296" type="line"/>
      <point x="344" y="296"/>
      <point x="403" y="221"/>
      <point x="411" y="139" type="curve" smooth="yes"/>
      <point x="412" y="131"/>
      <point x="413" y="123"/>
      <point x="413" y="115" type="curve" smooth="yes"/>
      <point x="413" y="20"/>
      <point x="345" y="-32"/>
      <point x="231" y="-32" type="curve" smooth="yes"/>
      <point x="101" y="-32"/>
      <point x="37" y="21"/>
      <point x="-9" y="121" type="curve"/>
      <point x="-56" y="104" type="line"/>
      <point x="-12" y="3"/>
      <point x="72" y="-72"/>
      <point x="236" y="-72" type="curve" smooth="yes"/>
      <point x="371" y="-72"/>
      <point x="471" y="-6"/>
      <point x="471" y="114" type="curve" smooth="yes"/>
      <point x="471" y="122"/>
      <point x="470" y="130"/>
      <point x="469" y="138" type="curve" smooth="yes"/>
      <point x="459" y="241"/>
      <point x="387" y="299"/>
      <point x="263" y="313" type="curve"/>
      <point x="273" y="297" type="line"/>
      <point x="277" y="328" type="line"/>
    </contour>
  </outline>
</glyph>
<glyph name="won.proportional" format="2">
  <advance width="880"/>
  <outline>
    <contour>
      <point x="71" y="710" type="line"/>
      <point x="64" y="672" type="line"/>
      <point x="78" y="672" type="line" smooth="yes"/>
      <point x="102" y="672"/>
      <point x="129" y="669"/>
      <point x="129" y="635" type="curve" smooth="yes"/>
      <point x="145" y="0" type="line"/>
      <point x="205" y="0" type="line"/>
      <point x="470" y="703" type="line"/>
      <point x="453" y="707" type="line"/>
      <point x="494" y="0" type="line"/>
      <point x="561" y="0" type="line"/>
      <point x="762" y="629" type="line" smooth="yes"/>
      <point x="773" y="663"/>
      <point x="803" y="672"/>
      <point x="826" y="672" type="curve" smooth="yes"/>
      <point x="840" y="672" type="line"/>
      <point x="848" y="710" type="line"/>
      <point x="685" y="710" type="line"/>
      <point x="678" y="672" type="line"/>
      <point x="692" y="672" type="line" smooth="yes"/>
      <point x="717" y="672"/>
      <point x="728" y="665"/>
      <point x="728" y="655" type="curve" smooth="yes"/>
      <point x="728" y="655"/>
      <point x="728" y="654"/>
      <point x="728" y="654" type="curve"/>
      <point x="524" y="8" type="line"/>
      <point x="536" y="10" type="line"/>
      <point x="494" y="710" type="line"/>
      <point x="431" y="710" type="line"/>
      <point x="169" y="12" type="line"/>
      <point x="187" y="15" type="line"/>
      <point x="177" y="662" type="line"/>
      <point x="178" y="669"/>
      <point x="194" y="672"/>
      <point x="216" y="672" type="curve" smooth="yes"/>
      <point x="231" y="672" type="line"/>
      <point x="239" y="710" type="line"/>
    </contour>
    <contour>
      <point x="16" y="493" type="line"/>
      <point x="10" y="453" type="line"/>
      <point x="164" y="453" type="line"/>
      <point x="161" y="465" type="line"/>
      <point x="361" y="472" type="line"/>
      <point x="361" y="493" type="line"/>
    </contour>
    <contour>
      <point x="487" y="472" type="line"/>
      <point x="691" y="465" type="line"/>
      <point x="680" y="453" type="line"/>
      <point x="825" y="453" type="line"/>
      <point x="832" y="493" type="line"/>
      <point x="493" y="493" type="line"/>
    </contour>
    <contour>
      <point x="271" y="236" type="line"/>
      <point x="509" y="236" type="line"/>
      <point x="506" y="256" type="line"/>
      <point x="401" y="279" type="line"/>
      <point x="285" y="256" type="line"/>
    </contour>
    <contour>
      <point x="623" y="248" type="line"/>
      <point x="792" y="248" type="line"/>
      <point x="800" y="287" type="line"/>
      <point x="642" y="287" type="line"/>
    </contour>
    <contour>
      <point x="148" y="287" type="line"/>
      <point x="-15" y="287" type="line"/>
      <point x="-24" y="248" type="line"/>
      <point x="152" y="248" type="line"/>
    </contour>
  </outline>
</glyph>
